<mxfile host="app.diagrams.net" modified="2024-06-03T23:14:41.309Z" agent="Mozilla/5.0 (Windows NT 10.0; Win64; x64; rv:126.0) Gecko/20100101 Firefox/126.0" etag="QhSTYZ2u4LS3tM2LR4pt" version="24.4.13" type="github">
  <diagram id="C5RBs43oDa-KdzZeNtuy" name="Page-1">
    <mxGraphModel dx="1287" dy="827" grid="1" gridSize="10" guides="1" tooltips="1" connect="1" arrows="1" fold="1" page="1" pageScale="1" pageWidth="827" pageHeight="1169" math="0" shadow="0">
      <root>
        <mxCell id="WIyWlLk6GJQsqaUBKTNV-0" />
        <mxCell id="WIyWlLk6GJQsqaUBKTNV-1" parent="WIyWlLk6GJQsqaUBKTNV-0" />
        <mxCell id="_2LWoxaKQsL1N8ZSX5pJ-0" value="Autor" style="swimlane;fontStyle=0;childLayout=stackLayout;horizontal=1;startSize=30;horizontalStack=0;resizeParent=1;resizeParentMax=0;resizeLast=0;collapsible=1;marginBottom=0;whiteSpace=wrap;html=1;rounded=1;swimlaneLine=1;shadow=0;" vertex="1" parent="WIyWlLk6GJQsqaUBKTNV-1">
          <mxGeometry x="49.93" y="69" width="140" height="180" as="geometry" />
        </mxCell>
        <mxCell id="_2LWoxaKQsL1N8ZSX5pJ-1" value="AutorLibroId" style="text;strokeColor=none;fillColor=none;align=left;verticalAlign=middle;spacingLeft=4;spacingRight=4;overflow=hidden;points=[[0,0.5],[1,0.5]];portConstraint=eastwest;rotatable=0;whiteSpace=wrap;html=1;" vertex="1" parent="_2LWoxaKQsL1N8ZSX5pJ-0">
          <mxGeometry y="30" width="140" height="30" as="geometry" />
        </mxCell>
        <mxCell id="_2LWoxaKQsL1N8ZSX5pJ-2" value="Nombre" style="text;strokeColor=none;fillColor=none;align=left;verticalAlign=middle;spacingLeft=4;spacingRight=4;overflow=hidden;points=[[0,0.5],[1,0.5]];portConstraint=eastwest;rotatable=0;whiteSpace=wrap;html=1;" vertex="1" parent="_2LWoxaKQsL1N8ZSX5pJ-0">
          <mxGeometry y="60" width="140" height="30" as="geometry" />
        </mxCell>
        <mxCell id="_2LWoxaKQsL1N8ZSX5pJ-3" value="Apellido" style="text;strokeColor=none;fillColor=none;align=left;verticalAlign=middle;spacingLeft=4;spacingRight=4;overflow=hidden;points=[[0,0.5],[1,0.5]];portConstraint=eastwest;rotatable=0;whiteSpace=wrap;html=1;rounded=1;" vertex="1" parent="_2LWoxaKQsL1N8ZSX5pJ-0">
          <mxGeometry y="90" width="140" height="30" as="geometry" />
        </mxCell>
        <mxCell id="_2LWoxaKQsL1N8ZSX5pJ-5" value="&lt;div&gt;FechaNacimiento&lt;/div&gt;" style="text;strokeColor=none;fillColor=none;align=left;verticalAlign=middle;spacingLeft=4;spacingRight=4;overflow=hidden;points=[[0,0.5],[1,0.5]];portConstraint=eastwest;rotatable=0;whiteSpace=wrap;html=1;rounded=1;" vertex="1" parent="_2LWoxaKQsL1N8ZSX5pJ-0">
          <mxGeometry y="120" width="140" height="30" as="geometry" />
        </mxCell>
        <mxCell id="_2LWoxaKQsL1N8ZSX5pJ-6" value="AutorLibroGuid" style="text;strokeColor=none;fillColor=none;align=left;verticalAlign=middle;spacingLeft=4;spacingRight=4;overflow=hidden;points=[[0,0.5],[1,0.5]];portConstraint=eastwest;rotatable=0;whiteSpace=wrap;html=1;rounded=1;" vertex="1" parent="_2LWoxaKQsL1N8ZSX5pJ-0">
          <mxGeometry y="150" width="140" height="30" as="geometry" />
        </mxCell>
        <mxCell id="_2LWoxaKQsL1N8ZSX5pJ-7" value="GradoAcademico" style="swimlane;fontStyle=0;childLayout=stackLayout;horizontal=1;startSize=30;horizontalStack=0;resizeParent=1;resizeParentMax=0;resizeLast=0;collapsible=1;marginBottom=0;whiteSpace=wrap;html=1;rounded=1;swimlaneLine=1;shadow=0;" vertex="1" parent="WIyWlLk6GJQsqaUBKTNV-1">
          <mxGeometry x="250" y="20" width="140" height="240" as="geometry" />
        </mxCell>
        <mxCell id="_2LWoxaKQsL1N8ZSX5pJ-8" value="GradoAcademicoId" style="text;strokeColor=none;fillColor=none;align=left;verticalAlign=middle;spacingLeft=4;spacingRight=4;overflow=hidden;points=[[0,0.5],[1,0.5]];portConstraint=eastwest;rotatable=0;whiteSpace=wrap;html=1;" vertex="1" parent="_2LWoxaKQsL1N8ZSX5pJ-7">
          <mxGeometry y="30" width="140" height="30" as="geometry" />
        </mxCell>
        <mxCell id="_2LWoxaKQsL1N8ZSX5pJ-9" value="Nombre" style="text;strokeColor=none;fillColor=none;align=left;verticalAlign=middle;spacingLeft=4;spacingRight=4;overflow=hidden;points=[[0,0.5],[1,0.5]];portConstraint=eastwest;rotatable=0;whiteSpace=wrap;html=1;" vertex="1" parent="_2LWoxaKQsL1N8ZSX5pJ-7">
          <mxGeometry y="60" width="140" height="30" as="geometry" />
        </mxCell>
        <mxCell id="_2LWoxaKQsL1N8ZSX5pJ-10" value="CentroAcademico" style="text;strokeColor=none;fillColor=none;align=left;verticalAlign=middle;spacingLeft=4;spacingRight=4;overflow=hidden;points=[[0,0.5],[1,0.5]];portConstraint=eastwest;rotatable=0;whiteSpace=wrap;html=1;rounded=1;" vertex="1" parent="_2LWoxaKQsL1N8ZSX5pJ-7">
          <mxGeometry y="90" width="140" height="30" as="geometry" />
        </mxCell>
        <mxCell id="_2LWoxaKQsL1N8ZSX5pJ-11" value="FechaGrado" style="text;strokeColor=none;fillColor=none;align=left;verticalAlign=middle;spacingLeft=4;spacingRight=4;overflow=hidden;points=[[0,0.5],[1,0.5]];portConstraint=eastwest;rotatable=0;whiteSpace=wrap;html=1;rounded=1;" vertex="1" parent="_2LWoxaKQsL1N8ZSX5pJ-7">
          <mxGeometry y="120" width="140" height="30" as="geometry" />
        </mxCell>
        <mxCell id="_2LWoxaKQsL1N8ZSX5pJ-19" value="AutorLibroId" style="text;strokeColor=none;fillColor=none;align=left;verticalAlign=middle;spacingLeft=4;spacingRight=4;overflow=hidden;points=[[0,0.5],[1,0.5]];portConstraint=eastwest;rotatable=0;whiteSpace=wrap;html=1;rounded=1;" vertex="1" parent="_2LWoxaKQsL1N8ZSX5pJ-7">
          <mxGeometry y="150" width="140" height="30" as="geometry" />
        </mxCell>
        <mxCell id="_2LWoxaKQsL1N8ZSX5pJ-12" value="AutorLibro" style="text;strokeColor=none;fillColor=none;align=left;verticalAlign=middle;spacingLeft=4;spacingRight=4;overflow=hidden;points=[[0,0.5],[1,0.5]];portConstraint=eastwest;rotatable=0;whiteSpace=wrap;html=1;rounded=1;" vertex="1" parent="_2LWoxaKQsL1N8ZSX5pJ-7">
          <mxGeometry y="180" width="140" height="30" as="geometry" />
        </mxCell>
        <mxCell id="_2LWoxaKQsL1N8ZSX5pJ-20" value="GradoAcademicoGuid" style="text;strokeColor=none;fillColor=none;align=left;verticalAlign=middle;spacingLeft=4;spacingRight=4;overflow=hidden;points=[[0,0.5],[1,0.5]];portConstraint=eastwest;rotatable=0;whiteSpace=wrap;html=1;rounded=1;" vertex="1" parent="_2LWoxaKQsL1N8ZSX5pJ-7">
          <mxGeometry y="210" width="140" height="30" as="geometry" />
        </mxCell>
        <mxCell id="_2LWoxaKQsL1N8ZSX5pJ-22" style="edgeStyle=orthogonalEdgeStyle;rounded=0;orthogonalLoop=1;jettySize=auto;html=1;exitX=1;exitY=0.5;exitDx=0;exitDy=0;entryX=0.011;entryY=0.343;entryDx=0;entryDy=0;entryPerimeter=0;" edge="1" parent="WIyWlLk6GJQsqaUBKTNV-1" source="_2LWoxaKQsL1N8ZSX5pJ-1" target="_2LWoxaKQsL1N8ZSX5pJ-12">
          <mxGeometry relative="1" as="geometry" />
        </mxCell>
        <mxCell id="_2LWoxaKQsL1N8ZSX5pJ-23" value="ImagenAutor" style="swimlane;fontStyle=0;childLayout=stackLayout;horizontal=1;startSize=30;horizontalStack=0;resizeParent=1;resizeParentMax=0;resizeLast=0;collapsible=1;marginBottom=0;whiteSpace=wrap;html=1;rounded=1;swimlaneLine=1;shadow=0;" vertex="1" parent="WIyWlLk6GJQsqaUBKTNV-1">
          <mxGeometry x="49.93" y="279" width="140" height="150" as="geometry" />
        </mxCell>
        <mxCell id="_2LWoxaKQsL1N8ZSX5pJ-24" value="ImagenId" style="text;strokeColor=none;fillColor=none;align=left;verticalAlign=middle;spacingLeft=4;spacingRight=4;overflow=hidden;points=[[0,0.5],[1,0.5]];portConstraint=eastwest;rotatable=0;whiteSpace=wrap;html=1;" vertex="1" parent="_2LWoxaKQsL1N8ZSX5pJ-23">
          <mxGeometry y="30" width="140" height="30" as="geometry" />
        </mxCell>
        <mxCell id="_2LWoxaKQsL1N8ZSX5pJ-25" value="&lt;div&gt;Bytes&lt;/div&gt;" style="text;strokeColor=none;fillColor=none;align=left;verticalAlign=middle;spacingLeft=4;spacingRight=4;overflow=hidden;points=[[0,0.5],[1,0.5]];portConstraint=eastwest;rotatable=0;whiteSpace=wrap;html=1;" vertex="1" parent="_2LWoxaKQsL1N8ZSX5pJ-23">
          <mxGeometry y="60" width="140" height="30" as="geometry" />
        </mxCell>
        <mxCell id="_2LWoxaKQsL1N8ZSX5pJ-26" value="Nombre" style="text;strokeColor=none;fillColor=none;align=left;verticalAlign=middle;spacingLeft=4;spacingRight=4;overflow=hidden;points=[[0,0.5],[1,0.5]];portConstraint=eastwest;rotatable=0;whiteSpace=wrap;html=1;rounded=1;" vertex="1" parent="_2LWoxaKQsL1N8ZSX5pJ-23">
          <mxGeometry y="90" width="140" height="30" as="geometry" />
        </mxCell>
        <mxCell id="_2LWoxaKQsL1N8ZSX5pJ-28" value="&lt;div&gt;AutorLibroId&lt;/div&gt;" style="text;strokeColor=none;fillColor=none;align=left;verticalAlign=middle;spacingLeft=4;spacingRight=4;overflow=hidden;points=[[0,0.5],[1,0.5]];portConstraint=eastwest;rotatable=0;whiteSpace=wrap;html=1;rounded=1;" vertex="1" parent="_2LWoxaKQsL1N8ZSX5pJ-23">
          <mxGeometry y="120" width="140" height="30" as="geometry" />
        </mxCell>
        <mxCell id="_2LWoxaKQsL1N8ZSX5pJ-29" style="edgeStyle=orthogonalEdgeStyle;rounded=0;orthogonalLoop=1;jettySize=auto;html=1;exitX=0;exitY=0.25;exitDx=0;exitDy=0;entryX=-0.001;entryY=0.32;entryDx=0;entryDy=0;entryPerimeter=0;" edge="1" parent="WIyWlLk6GJQsqaUBKTNV-1" source="_2LWoxaKQsL1N8ZSX5pJ-0" target="_2LWoxaKQsL1N8ZSX5pJ-28">
          <mxGeometry relative="1" as="geometry" />
        </mxCell>
        <mxCell id="_2LWoxaKQsL1N8ZSX5pJ-30" value="Director" style="swimlane;fontStyle=0;childLayout=stackLayout;horizontal=1;startSize=30;horizontalStack=0;resizeParent=1;resizeParentMax=0;resizeLast=0;collapsible=1;marginBottom=0;whiteSpace=wrap;html=1;" vertex="1" parent="WIyWlLk6GJQsqaUBKTNV-1">
          <mxGeometry x="324" y="430" width="420" height="120" as="geometry" />
        </mxCell>
        <mxCell id="_2LWoxaKQsL1N8ZSX5pJ-31" value="Ejecuta(builder)" style="text;strokeColor=none;fillColor=none;align=left;verticalAlign=middle;spacingLeft=4;spacingRight=4;overflow=hidden;points=[[0,0.5],[1,0.5]];portConstraint=eastwest;rotatable=0;whiteSpace=wrap;html=1;" vertex="1" parent="_2LWoxaKQsL1N8ZSX5pJ-30">
          <mxGeometry y="30" width="420" height="30" as="geometry" />
        </mxCell>
        <mxCell id="_2LWoxaKQsL1N8ZSX5pJ-32" value="Manejador(builder)" style="text;strokeColor=none;fillColor=none;align=left;verticalAlign=middle;spacingLeft=4;spacingRight=4;overflow=hidden;points=[[0,0.5],[1,0.5]];portConstraint=eastwest;rotatable=0;whiteSpace=wrap;html=1;" vertex="1" parent="_2LWoxaKQsL1N8ZSX5pJ-30">
          <mxGeometry y="60" width="420" height="30" as="geometry" />
        </mxCell>
        <mxCell id="_2LWoxaKQsL1N8ZSX5pJ-45" value="EjecutarValidacion(builder)" style="text;strokeColor=none;fillColor=none;align=left;verticalAlign=middle;spacingLeft=4;spacingRight=4;overflow=hidden;points=[[0,0.5],[1,0.5]];portConstraint=eastwest;rotatable=0;whiteSpace=wrap;html=1;rounded=1;" vertex="1" parent="_2LWoxaKQsL1N8ZSX5pJ-30">
          <mxGeometry y="90" width="420" height="30" as="geometry" />
        </mxCell>
        <mxCell id="_2LWoxaKQsL1N8ZSX5pJ-50" style="edgeStyle=orthogonalEdgeStyle;rounded=0;orthogonalLoop=1;jettySize=auto;html=1;exitX=0.5;exitY=1;exitDx=0;exitDy=0;entryX=0.5;entryY=0;entryDx=0;entryDy=0;" edge="1" parent="WIyWlLk6GJQsqaUBKTNV-1" source="_2LWoxaKQsL1N8ZSX5pJ-34" target="_2LWoxaKQsL1N8ZSX5pJ-46">
          <mxGeometry relative="1" as="geometry" />
        </mxCell>
        <mxCell id="_2LWoxaKQsL1N8ZSX5pJ-54" style="edgeStyle=orthogonalEdgeStyle;rounded=0;orthogonalLoop=1;jettySize=auto;html=1;exitX=0;exitY=0.5;exitDx=0;exitDy=0;" edge="1" parent="WIyWlLk6GJQsqaUBKTNV-1" source="_2LWoxaKQsL1N8ZSX5pJ-34" target="_2LWoxaKQsL1N8ZSX5pJ-39">
          <mxGeometry relative="1" as="geometry" />
        </mxCell>
        <mxCell id="_2LWoxaKQsL1N8ZSX5pJ-34" value="&lt;div&gt;Autor&lt;/div&gt;&lt;div&gt;Builder&lt;/div&gt;" style="swimlane;fontStyle=0;childLayout=stackLayout;horizontal=1;startSize=30;horizontalStack=0;resizeParent=1;resizeParentMax=0;resizeLast=0;collapsible=1;marginBottom=0;whiteSpace=wrap;html=1;rounded=1;swimlaneLine=1;shadow=0;" vertex="1" parent="WIyWlLk6GJQsqaUBKTNV-1">
          <mxGeometry x="394" y="690" width="140" height="150" as="geometry" />
        </mxCell>
        <mxCell id="_2LWoxaKQsL1N8ZSX5pJ-35" value="autor: Autor" style="text;strokeColor=none;fillColor=none;align=left;verticalAlign=middle;spacingLeft=4;spacingRight=4;overflow=hidden;points=[[0,0.5],[1,0.5]];portConstraint=eastwest;rotatable=0;whiteSpace=wrap;html=1;" vertex="1" parent="_2LWoxaKQsL1N8ZSX5pJ-34">
          <mxGeometry y="30" width="140" height="30" as="geometry" />
        </mxCell>
        <mxCell id="_2LWoxaKQsL1N8ZSX5pJ-47" value="" style="shape=link;html=1;rounded=0;entryX=0.998;entryY=1.056;entryDx=0;entryDy=0;entryPerimeter=0;" edge="1" parent="_2LWoxaKQsL1N8ZSX5pJ-34" target="_2LWoxaKQsL1N8ZSX5pJ-35">
          <mxGeometry width="100" relative="1" as="geometry">
            <mxPoint y="60" as="sourcePoint" />
            <mxPoint x="100" y="60" as="targetPoint" />
          </mxGeometry>
        </mxCell>
        <mxCell id="_2LWoxaKQsL1N8ZSX5pJ-38" value="&lt;div&gt;Nuevo()&lt;/div&gt;" style="text;strokeColor=none;fillColor=none;align=left;verticalAlign=middle;spacingLeft=4;spacingRight=4;overflow=hidden;points=[[0,0.5],[1,0.5]];portConstraint=eastwest;rotatable=0;whiteSpace=wrap;html=1;rounded=1;" vertex="1" parent="_2LWoxaKQsL1N8ZSX5pJ-34">
          <mxGeometry y="60" width="140" height="30" as="geometry" />
        </mxCell>
        <mxCell id="_2LWoxaKQsL1N8ZSX5pJ-36" value="Consulta()" style="text;strokeColor=none;fillColor=none;align=left;verticalAlign=middle;spacingLeft=4;spacingRight=4;overflow=hidden;points=[[0,0.5],[1,0.5]];portConstraint=eastwest;rotatable=0;whiteSpace=wrap;html=1;" vertex="1" parent="_2LWoxaKQsL1N8ZSX5pJ-34">
          <mxGeometry y="90" width="140" height="30" as="geometry" />
        </mxCell>
        <mxCell id="_2LWoxaKQsL1N8ZSX5pJ-37" value="ConsultarFiltro()" style="text;strokeColor=none;fillColor=none;align=left;verticalAlign=middle;spacingLeft=4;spacingRight=4;overflow=hidden;points=[[0,0.5],[1,0.5]];portConstraint=eastwest;rotatable=0;whiteSpace=wrap;html=1;rounded=1;" vertex="1" parent="_2LWoxaKQsL1N8ZSX5pJ-34">
          <mxGeometry y="120" width="140" height="30" as="geometry" />
        </mxCell>
        <mxCell id="_2LWoxaKQsL1N8ZSX5pJ-39" value="&lt;div&gt;&amp;lt;&amp;lt;Interface&amp;gt;&amp;gt;&lt;/div&gt;&lt;div&gt;Builder&lt;br&gt;&lt;/div&gt;" style="swimlane;fontStyle=0;childLayout=stackLayout;horizontal=1;startSize=30;horizontalStack=0;resizeParent=1;resizeParentMax=0;resizeLast=0;collapsible=1;marginBottom=0;whiteSpace=wrap;html=1;rounded=1;swimlaneLine=1;shadow=0;" vertex="1" parent="WIyWlLk6GJQsqaUBKTNV-1">
          <mxGeometry x="94" y="600" width="140" height="120" as="geometry" />
        </mxCell>
        <mxCell id="_2LWoxaKQsL1N8ZSX5pJ-42" value="Nuevo()" style="text;strokeColor=none;fillColor=none;align=left;verticalAlign=middle;spacingLeft=4;spacingRight=4;overflow=hidden;points=[[0,0.5],[1,0.5]];portConstraint=eastwest;rotatable=0;whiteSpace=wrap;html=1;rounded=1;" vertex="1" parent="_2LWoxaKQsL1N8ZSX5pJ-39">
          <mxGeometry y="30" width="140" height="30" as="geometry" />
        </mxCell>
        <mxCell id="_2LWoxaKQsL1N8ZSX5pJ-40" value="Consulta()" style="text;strokeColor=none;fillColor=none;align=left;verticalAlign=middle;spacingLeft=4;spacingRight=4;overflow=hidden;points=[[0,0.5],[1,0.5]];portConstraint=eastwest;rotatable=0;whiteSpace=wrap;html=1;" vertex="1" parent="_2LWoxaKQsL1N8ZSX5pJ-39">
          <mxGeometry y="60" width="140" height="30" as="geometry" />
        </mxCell>
        <mxCell id="_2LWoxaKQsL1N8ZSX5pJ-41" value="ConsultarFiltro()" style="text;strokeColor=none;fillColor=none;align=left;verticalAlign=middle;spacingLeft=4;spacingRight=4;overflow=hidden;points=[[0,0.5],[1,0.5]];portConstraint=eastwest;rotatable=0;whiteSpace=wrap;html=1;" vertex="1" parent="_2LWoxaKQsL1N8ZSX5pJ-39">
          <mxGeometry y="90" width="140" height="30" as="geometry" />
        </mxCell>
        <mxCell id="_2LWoxaKQsL1N8ZSX5pJ-46" value="Autor" style="rounded=1;whiteSpace=wrap;html=1;" vertex="1" parent="WIyWlLk6GJQsqaUBKTNV-1">
          <mxGeometry x="414" y="880" width="100" height="30" as="geometry" />
        </mxCell>
        <mxCell id="_2LWoxaKQsL1N8ZSX5pJ-51" style="edgeStyle=orthogonalEdgeStyle;rounded=0;orthogonalLoop=1;jettySize=auto;html=1;exitX=0;exitY=0.5;exitDx=0;exitDy=0;entryX=0.5;entryY=0;entryDx=0;entryDy=0;" edge="1" parent="WIyWlLk6GJQsqaUBKTNV-1" source="_2LWoxaKQsL1N8ZSX5pJ-32" target="_2LWoxaKQsL1N8ZSX5pJ-39">
          <mxGeometry relative="1" as="geometry" />
        </mxCell>
        <mxCell id="_2LWoxaKQsL1N8ZSX5pJ-56" style="edgeStyle=orthogonalEdgeStyle;rounded=0;orthogonalLoop=1;jettySize=auto;html=1;exitX=0.5;exitY=0;exitDx=0;exitDy=0;entryX=1;entryY=0.5;entryDx=0;entryDy=0;" edge="1" parent="WIyWlLk6GJQsqaUBKTNV-1" source="_2LWoxaKQsL1N8ZSX5pJ-55" target="_2LWoxaKQsL1N8ZSX5pJ-31">
          <mxGeometry relative="1" as="geometry" />
        </mxCell>
        <mxCell id="_2LWoxaKQsL1N8ZSX5pJ-57" style="edgeStyle=orthogonalEdgeStyle;rounded=0;orthogonalLoop=1;jettySize=auto;html=1;exitX=0.5;exitY=1;exitDx=0;exitDy=0;entryX=1;entryY=0.5;entryDx=0;entryDy=0;" edge="1" parent="WIyWlLk6GJQsqaUBKTNV-1" source="_2LWoxaKQsL1N8ZSX5pJ-55" target="_2LWoxaKQsL1N8ZSX5pJ-36">
          <mxGeometry relative="1" as="geometry" />
        </mxCell>
        <mxCell id="_2LWoxaKQsL1N8ZSX5pJ-55" value="Cliente" style="rounded=1;whiteSpace=wrap;html=1;" vertex="1" parent="WIyWlLk6GJQsqaUBKTNV-1">
          <mxGeometry x="634" y="665" width="120" height="35" as="geometry" />
        </mxCell>
        <mxCell id="_2LWoxaKQsL1N8ZSX5pJ-58" value="Modelos" style="text;html=1;align=center;verticalAlign=middle;whiteSpace=wrap;rounded=0;fontSize=17;" vertex="1" parent="WIyWlLk6GJQsqaUBKTNV-1">
          <mxGeometry x="120" y="20" width="60" height="30" as="geometry" />
        </mxCell>
        <mxCell id="_2LWoxaKQsL1N8ZSX5pJ-59" value="Patron de diseño: Builder" style="text;html=1;align=center;verticalAlign=middle;whiteSpace=wrap;rounded=0;fontSize=23;" vertex="1" parent="WIyWlLk6GJQsqaUBKTNV-1">
          <mxGeometry x="290" y="380" width="270" height="30" as="geometry" />
        </mxCell>
      </root>
    </mxGraphModel>
  </diagram>
</mxfile>
